<svg xmlns="http://www.w3.org/2000/svg" version="1.1" xmlns:xlink="http://www.w3.org/1999/xlink" xmlns:svgjs="http://svgjs.dev/svgjs" viewBox="0 0 800 800"><defs><linearGradient x1="50%" y1="0%" x2="50%" y2="100%" id="gggyrate-grad"><stop stop-color="hsl(206, 75%, 49%)" stop-opacity="1" offset="0%"></stop><stop stop-color="hsl(331, 90%, 56%)" stop-opacity="1" offset="100%"></stop></linearGradient></defs><g stroke-width="12.5" stroke="url(#gggyrate-grad)" fill="none"><polygon points="400,296.875 262.5,503.125 537.5,503.125" transform="rotate(467.5, 400, 400)" opacity="0.05"></polygon><polygon points="400,298.75 265,501.25 535,501.25" transform="rotate(459, 400, 400)" opacity="0.07"></polygon><polygon points="400,300.625 267.5,499.375 532.5,499.375" transform="rotate(450.5, 400, 400)" opacity="0.09"></polygon><polygon points="400,302.5 270,497.5 530,497.5" transform="rotate(442, 400, 400)" opacity="0.10"></polygon><polygon points="400,304.375 272.5,495.625 527.5,495.625" transform="rotate(433.5, 400, 400)" opacity="0.12"></polygon><polygon points="400,306.25 275,493.75 525,493.75" transform="rotate(425, 400, 400)" opacity="0.14"></polygon><polygon points="400,308.125 277.5,491.875 522.5,491.875" transform="rotate(416.5, 400, 400)" opacity="0.16"></polygon><polygon points="400,310 280,490 520,490" transform="rotate(408, 400, 400)" opacity="0.17"></polygon><polygon points="400,311.875 282.5,488.125 517.5,488.125" transform="rotate(399.5, 400, 400)" opacity="0.19"></polygon><polygon points="400,313.75 285,486.25 515,486.25" transform="rotate(391, 400, 400)" opacity="0.21"></polygon><polygon points="400,315.625 287.5,484.375 512.5,484.375" transform="rotate(382.5, 400, 400)" opacity="0.23"></polygon><polygon points="400,317.5 290,482.5 510,482.5" transform="rotate(374, 400, 400)" opacity="0.24"></polygon><polygon points="400,319.375 292.5,480.625 507.5,480.625" transform="rotate(365.5, 400, 400)" opacity="0.26"></polygon><polygon points="400,321.25 295,478.75 505,478.75" transform="rotate(357, 400, 400)" opacity="0.28"></polygon><polygon points="400,323.125 297.5,476.875 502.5,476.875" transform="rotate(348.5, 400, 400)" opacity="0.30"></polygon><polygon points="400,325 300,475 500,475" transform="rotate(340, 400, 400)" opacity="0.31"></polygon><polygon points="400,326.875 302.5,473.125 497.5,473.125" transform="rotate(331.5, 400, 400)" opacity="0.33"></polygon><polygon points="400,328.75 305,471.25 495,471.25" transform="rotate(323, 400, 400)" opacity="0.35"></polygon><polygon points="400,330.625 307.5,469.375 492.5,469.375" transform="rotate(314.5, 400, 400)" opacity="0.37"></polygon><polygon points="400,332.5 310,467.5 490,467.5" transform="rotate(306, 400, 400)" opacity="0.38"></polygon><polygon points="400,334.375 312.5,465.625 487.5,465.625" transform="rotate(297.5, 400, 400)" opacity="0.40"></polygon><polygon points="400,336.25 315,463.75 485,463.75" transform="rotate(289, 400, 400)" opacity="0.42"></polygon><polygon points="400,338.125 317.5,461.875 482.5,461.875" transform="rotate(280.5, 400, 400)" opacity="0.44"></polygon><polygon points="400,340 320,460 480,460" transform="rotate(272, 400, 400)" opacity="0.45"></polygon><polygon points="400,341.875 322.5,458.125 477.5,458.125" transform="rotate(263.5, 400, 400)" opacity="0.47"></polygon><polygon points="400,343.75 325,456.25 475,456.25" transform="rotate(255, 400, 400)" opacity="0.49"></polygon><polygon points="400,345.625 327.5,454.375 472.5,454.375" transform="rotate(246.5, 400, 400)" opacity="0.51"></polygon><polygon points="400,347.5 330,452.5 470,452.5" transform="rotate(238, 400, 400)" opacity="0.53"></polygon><polygon points="400,349.375 332.5,450.625 467.5,450.625" transform="rotate(229.5, 400, 400)" opacity="0.54"></polygon><polygon points="400,351.25 335,448.75 465,448.75" transform="rotate(221, 400, 400)" opacity="0.56"></polygon><polygon points="400,353.125 337.5,446.875 462.5,446.875" transform="rotate(212.5, 400, 400)" opacity="0.58"></polygon><polygon points="400,355 340,445 460,445" transform="rotate(204, 400, 400)" opacity="0.60"></polygon><polygon points="400,356.875 342.5,443.125 457.5,443.125" transform="rotate(195.5, 400, 400)" opacity="0.61"></polygon><polygon points="400,358.75 345,441.25 455,441.25" transform="rotate(187, 400, 400)" opacity="0.63"></polygon><polygon points="400,360.625 347.5,439.375 452.5,439.375" transform="rotate(178.5, 400, 400)" opacity="0.65"></polygon><polygon points="400,362.5 350,437.5 450,437.5" transform="rotate(170, 400, 400)" opacity="0.67"></polygon><polygon points="400,364.375 352.5,435.625 447.5,435.625" transform="rotate(161.5, 400, 400)" opacity="0.68"></polygon><polygon points="400,366.25 355,433.75 445,433.75" transform="rotate(153, 400, 400)" opacity="0.70"></polygon><polygon points="400,368.125 357.5,431.875 442.5,431.875" transform="rotate(144.5, 400, 400)" opacity="0.72"></polygon><polygon points="400,370 360,430 440,430" transform="rotate(136, 400, 400)" opacity="0.74"></polygon><polygon points="400,371.875 362.5,428.125 437.5,428.125" transform="rotate(127.5, 400, 400)" opacity="0.75"></polygon><polygon points="400,373.75 365,426.25 435,426.25" transform="rotate(119, 400, 400)" opacity="0.77"></polygon><polygon points="400,375.625 367.5,424.375 432.5,424.375" transform="rotate(110.5, 400, 400)" opacity="0.79"></polygon><polygon points="400,377.5 370,422.5 430,422.5" transform="rotate(102, 400, 400)" opacity="0.81"></polygon><polygon points="400,379.375 372.5,420.625 427.5,420.625" transform="rotate(93.5, 400, 400)" opacity="0.82"></polygon><polygon points="400,381.25 375,418.75 425,418.75" transform="rotate(85, 400, 400)" opacity="0.84"></polygon><polygon points="400,383.125 377.5,416.875 422.5,416.875" transform="rotate(76.5, 400, 400)" opacity="0.86"></polygon><polygon points="400,385 380,415 420,415" transform="rotate(68, 400, 400)" opacity="0.88"></polygon><polygon points="400,386.875 382.5,413.125 417.5,413.125" transform="rotate(59.5, 400, 400)" opacity="0.89"></polygon><polygon points="400,388.75 385,411.25 415,411.25" transform="rotate(51, 400, 400)" opacity="0.91"></polygon><polygon points="400,390.625 387.5,409.375 412.5,409.375" transform="rotate(42.5, 400, 400)" opacity="0.93"></polygon><polygon points="400,392.5 390,407.5 410,407.5" transform="rotate(34, 400, 400)" opacity="0.95"></polygon><polygon points="400,394.375 392.5,405.625 407.5,405.625" transform="rotate(25.5, 400, 400)" opacity="0.96"></polygon><polygon points="400,396.25 395,403.75 405,403.75" transform="rotate(17, 400, 400)" opacity="0.98"></polygon><polygon points="400,398.125 397.5,401.875 402.5,401.875" transform="rotate(8.5, 400, 400)" opacity="1.00"></polygon></g></svg>